<svg
  xmlns="http://www.w3.org/2000/svg"
  fill="none"
  viewBox="0 0 24 24"
  stroke-width="1.5"
  stroke="currentColor"
  class="w-6 h-6"
>
  <path stroke-linecap="round" stroke-linejoin="round"
    d="M9.813 15.904 9 18.75l-.813-2.846a4.5 4.5 0 0 0-3.09-3.09L2.25 12l2.846-.813a4.5 4.5 0 0 0 3.09-3.09L9 5.25l.813 2.846a4.5 4.5 0 0 0 3.09 3.09L15.75 12l-2.846.813a4.5 4.5 0 0 0-3.09 3.09ZM18.259 8.715 18 9.75l-.259-1.035a3.375 3.375 0 0 0-2.455-2.456L14.25 6l1.036-.259a3.375 3.375 0 0 0 2.455-2.456L18 2.25l.259 1.035a3.375 3.375 0 0 0 2.456 2.456L21.75 6l-1.035.259a3.375 3.375 0 0 0-2.456 2.456ZM16.894 20.567 16.5 22.25l-.394-1.683a2.25 2.25 0 0 0-1.638-1.639L12.784 18.5l1.683-.393a2.25 2.25 0 0 0 1.639-1.638l.393-1.683.394 1.683a2.25 2.25 0 0 0 1.638 1.639l1.683.393-1.683.394a2.25 2.25 0 0 0-1.639 1.638Z" />
</svg>